<svg xmlns="http://www.w3.org/2000/svg" viewBox="0 0 246.43 47.78"><title>Asset 1</title><g id="Layer_2" data-name="Layer 2"><g id="Layer_1-2" data-name="Layer 1"><path d="M46.12,0H8.88A3.83,3.83,0,0,0,5.49,5.62l3.73,7H2.49a2.48,2.48,0,0,0-2.2,3.64L12.29,39a2.48,2.48,0,0,0,4.39,0l3.21-6.09L24,40.63a3.83,3.83,0,0,0,6.77,0L49.41,5.48A3.73,3.73,0,0,0,46.12,0ZM29.39,15l-8,15.15a1.65,1.65,0,0,1-2.92,0l-8-15.08a1.65,1.65,0,0,1,1.46-2.42H28A1.61,1.61,0,0,1,29.39,15Z"/><path d="M70.65,2.9H69V8.6a.2.2,0,0,1-.19.19H67.49a.2.2,0,0,1-.19-.19V2.9H65.64a.19.19,0,0,1-.19-.19h0v-1a.19.19,0,0,1,.19-.19h5a.2.2,0,0,1,.2.19v1A.2.2,0,0,1,70.65,2.9Z"/><path d="M76,8.76a12.75,12.75,0,0,1-2,.13c-1.26,0-2.37-.32-2.37-2.09V3.55c0-1.77,1.12-2.08,2.38-2.08a12.59,12.59,0,0,1,2,.13c.14,0,.19.07.19.19V2.7a.2.2,0,0,1-.19.19H73.92c-.46,0-.62.16-.62.66v.89h2.6a.2.2,0,0,1,.19.19v.93a.2.2,0,0,1-.19.19H73.3v1c0,.51.17.66.62.66H76a.2.2,0,0,1,.19.19v.91C76.16,8.68,76.1,8.74,76,8.76Z"/><path d="M83.31,8.8H81.76a.26.26,0,0,1-.25-.15L80.17,6.52,78.95,8.6c-.07.12-.14.19-.24.19H77.27a.13.13,0,0,1-.15-.11v0a.18.18,0,0,1,0-.07l2.11-3.52L77.1,1.73a.14.14,0,0,1,0-.06.14.14,0,0,1,.15-.13h1.57c.11,0,.19.1.24.19l1.25,2,1.21-2a.32.32,0,0,1,.24-.19H83.2a.14.14,0,0,1,.15.13h0a.14.14,0,0,1,0,.06L81.23,5.09l2.21,3.5a.22.22,0,0,1,0,.1C83.49,8.76,83.39,8.8,83.31,8.8Z"/><path d="M63.14,1.58A.15.15,0,0,0,63,1.7L61.57,6.9c0,.11,0,.15-.14.15s-.12,0-.14-.15l-1.4-5.2a.15.15,0,0,0-.15-.12H58.35a.15.15,0,0,0-.15.18l1.75,6.06A1.47,1.47,0,0,0,61.49,8.9,1.51,1.51,0,0,0,63,7.84c0-.08,1.72-6.06,1.72-6.06a.15.15,0,0,0-.12-.18h0Z"/><path d="M57.63,20.59v-.42A7.37,7.37,0,0,1,60.44,14a11.78,11.78,0,0,1,7.47-2.2,12.58,12.58,0,0,1,7.32,1.87,7,7,0,0,1,3,5.43v.55H71.6a2.86,2.86,0,0,0-1-2.06,3.84,3.84,0,0,0-2.48-.71,4.39,4.39,0,0,0-2.58.67,2.1,2.1,0,0,0-.94,1.8,2.29,2.29,0,0,0,.61,1.7,5.82,5.82,0,0,0,2.45,1.11q.5.17,2.12.61t2.58.73a16.15,16.15,0,0,1,2.56,1.07,7.39,7.39,0,0,1,1.72,1.24,7.23,7.23,0,0,1,1.55,2.39,7.44,7.44,0,0,1,.59,2.85v.42a7.69,7.69,0,0,1-2.94,6.44,12.58,12.58,0,0,1-7.93,2.29q-4.91,0-7.7-2a7.73,7.73,0,0,1-3.13-5.9v-.59h6.75A3.22,3.22,0,0,0,65,34.31a5,5,0,0,0,3.17.88,4.57,4.57,0,0,0,2.75-.78,2.36,2.36,0,0,0,1.07-2,2.58,2.58,0,0,0-.63-1.87,5.4,5.4,0,0,0-2.22-1.15q-.34-.13-4.2-1.26t-5.2-2.48a7.18,7.18,0,0,1-1.49-2.33A7.09,7.09,0,0,1,57.63,20.59Z"/><path d="M87.92,13.88v5H92.7v4.74H88v9a2.19,2.19,0,0,0,.5,1.57,2.06,2.06,0,0,0,1.55.52,5,5,0,0,0,1.22-.17,7.58,7.58,0,0,0,1.38-.5h.5v4.87A6.68,6.68,0,0,1,91,39.7a11.88,11.88,0,0,1-2.58.32,7.44,7.44,0,0,1-5.29-1.7,6.51,6.51,0,0,1-1.8-5V23.61H78.69V20.55a11.57,11.57,0,0,0,3.59-2.35,17.49,17.49,0,0,0,3-4.32Z"/><path d="M104.16,32.72h.08q.25-1.17.57-2.37t.65-2.12l3.27-9.61h6.59v.71l-11.5,27.82h-7v-.67l3.69-7.89-8-19.26v-.71h7l3.36,9.61q.29.75.61,1.87T104.16,32.72Z"/><path d="M115.86,10.23h6.59V32a2.88,2.88,0,0,0,.65,2.18,2.73,2.73,0,0,0,2.16.42h.5v4.87q-1.13.21-1.76.29a10.56,10.56,0,0,1-1.38.08,7,7,0,0,1-5.08-1.66,6.76,6.76,0,0,1-1.68-5Z"/><path d="M136.72,18a10.3,10.3,0,0,1,7.49,2.83,10.13,10.13,0,0,1,2.92,7.61c0,.39,0,.82,0,1.28s0,.8-.06,1H132.6A5.32,5.32,0,0,0,134,34a4.19,4.19,0,0,0,3.13,1.22,4.79,4.79,0,0,0,2.39-.55,3.08,3.08,0,0,0,1.38-1.64h6.17a8.35,8.35,0,0,1-3.46,5.29A11.28,11.28,0,0,1,137,40.27a11,11,0,0,1-7.93-3,10.22,10.22,0,0,1-3.15-7.74v-.71A10.45,10.45,0,0,1,136.72,18Zm-4,8.56h7.85a3.86,3.86,0,0,0-1-2.79,3.53,3.53,0,0,0-2.66-1.07,3.91,3.91,0,0,0-2.79,1A4.82,4.82,0,0,0,132.73,26.51Z"/><path d="M168.77,40.52v.29a5.69,5.69,0,0,1-3.25,5.1,20,20,0,0,1-15.86.44,4.43,4.43,0,0,1-2.79-4.07v-.34a3.75,3.75,0,0,1,1-2.29,5.51,5.51,0,0,1,2.35-1.74,6,6,0,0,1-1.74-1.68,3.43,3.43,0,0,1-.44-1.76,3.87,3.87,0,0,1,.63-2.2,6.8,6.8,0,0,1,2-1.83A5.76,5.76,0,0,1,149,28.31a6.77,6.77,0,0,1-.57-2.81v-.42a6.19,6.19,0,0,1,2.52-5.24A11.15,11.15,0,0,1,157.78,18q.54,0,1.07,0l1,.08L163,14.38h5.75v.75l-4,4.83a6.13,6.13,0,0,1,1.78,2.2,6.72,6.72,0,0,1,.61,2.92v.46a6,6,0,0,1-2.48,5.12,11.5,11.5,0,0,1-6.88,1.8,18.78,18.78,0,0,1-2-.1A12,12,0,0,1,154,32a1.67,1.67,0,0,0-.19.48,2.94,2.94,0,0,0-.06.65,1.32,1.32,0,0,0,.5,1.13,2.42,2.42,0,0,0,1.47.38h4.87a10.19,10.19,0,0,1,5.89,1.57A4.92,4.92,0,0,1,168.77,40.52Zm-15.36.55a1.77,1.77,0,0,0,1,1.7,8,8,0,0,0,3.36.52,8.16,8.16,0,0,0,3.4-.55,1.75,1.75,0,0,0,1.13-1.64,1.42,1.42,0,0,0-.57-1.22,2.75,2.75,0,0,0-1.66-.42h-5.54a1.57,1.57,0,0,0-.86.63A1.68,1.68,0,0,0,153.42,41.07Zm7.43-15.82A2.94,2.94,0,0,0,160,23a3.69,3.69,0,0,0-4.53,0,2.94,2.94,0,0,0-.8,2.2,2.94,2.94,0,0,0,.8,2.2,3.69,3.69,0,0,0,4.53,0A2.94,2.94,0,0,0,160.84,25.25Z"/><path d="M176.2,18.62V31.29a4,4,0,0,0,.86,2.73,3.29,3.29,0,0,0,4.66,0,4,4,0,0,0,.86-2.73V18.62H189V30.87q0,4.57-2.5,7t-7.2,2.39q-4.66,0-7.15-2.41t-2.5-6.94V18.62Z"/><path d="M195.2,9.35a4.31,4.31,0,0,1,2.9,1,3.15,3.15,0,0,1,1.13,2.52v.29a3,3,0,0,1-1.13,2.45,5,5,0,0,1-5.81,0,3.05,3.05,0,0,1-1.11-2.48v-.29a3.15,3.15,0,0,1,1.13-2.52A4.31,4.31,0,0,1,195.2,9.35Zm3.31,9.27v21h-6.63v-21Z"/><path d="M200.74,29.61v-.8a11,11,0,0,1,2.85-7.68,9.14,9.14,0,0,1,7-3.15,9.58,9.58,0,0,1,3.27.5A5.54,5.54,0,0,1,216.23,20h.08V10.23h6.54V39.6h-5L217,37h-.08a7.46,7.46,0,0,1-2.75,2.41,8.52,8.52,0,0,1-3.8.78,9,9,0,0,1-6.82-3A10.74,10.74,0,0,1,200.74,29.61ZM212,23.4a3.81,3.81,0,0,0-3.21,1.51A6.61,6.61,0,0,0,207.67,29a6.87,6.87,0,0,0,1.15,4.2A3.77,3.77,0,0,0,212,34.78a3.81,3.81,0,0,0,3.21-1.51,6.61,6.61,0,0,0,1.15-4.11,6.88,6.88,0,0,0-1.15-4.2A3.78,3.78,0,0,0,212,23.4Z"/><path d="M236,18a10.3,10.3,0,0,1,7.49,2.83,10.13,10.13,0,0,1,2.92,7.61c0,.39,0,.82,0,1.28s0,.8-.06,1H231.92A5.32,5.32,0,0,0,233.32,34a4.19,4.19,0,0,0,3.13,1.22,4.79,4.79,0,0,0,2.39-.55,3.08,3.08,0,0,0,1.38-1.64h6.17a8.35,8.35,0,0,1-3.46,5.29,11.28,11.28,0,0,1-6.65,1.93,11,11,0,0,1-7.93-3,10.22,10.22,0,0,1-3.15-7.74v-.71A10.45,10.45,0,0,1,236,18Zm-4,8.56h7.85a3.86,3.86,0,0,0-1-2.79,3.53,3.53,0,0,0-2.66-1.07,3.91,3.91,0,0,0-2.79,1A4.82,4.82,0,0,0,232,26.51Z"/></g></g></svg>